<!-- icon666.com - MILLIONS vector ICONS FREE --><svg viewBox="0 0 512 512" xmlns="http://www.w3.org/2000/svg"><path d="m512 256c0 5.21875-.160156 10.398438-.46875 15.539062-4.070312 68.070313-34.742188 128.960938-81.761719 172.449219-45.640625 42.210938-106.691406-24.4375-173.769531-24.4375-66.078125 0-126.308594 65.800781-171.730469 26.289063-.058593-.058594-.121093-.109375-.179687-.160156-.339844-.300782-.679688-.601563-1.019532-.910157-51.058593-46.800781-83.070312-114.050781-83.070312-188.769531 0-141.378906 114.621094-256 256-256s256 114.621094 256 256zm0 0" fill="#ff056c"></path><path d="m511.53125 271.539062c-4.070312 68.070313-34.742188 128.960938-81.761719 172.449219-45.640625 42.210938-106.691406-24.4375-173.769531-24.4375-66.078125 0-126.308594 65.800781-171.730469 26.289063-.058593-.058594-.121093-.109375-.179687-.160156-.339844-.308594-.679688-.609376-1.011719-.917969-.289063-.261719-.566406-.53125-.847656-.792969v-54.667969c0-31.0625 25.167969-56.230469 56.21875-56.230469h67.210937v-53.570312c-.601562-.609375-1.191406-1.25-1.78125-1.890625-9.527344-8.757813-18.898437-20.339844-27.328125-35.621094l-32.742187-32.089843c-3.128906-3.410157-5.238282-7.808594-5.777344-12.738282l-1.960938-18.160156c-1.269531-11.730469 6.828126-22.410156 18.25-24.539062 4.25-62.5 57.539063-97.960938 101.667969-97.960938 25.730469 0 54.570313 12.058594 75 34.488281zm0 0" fill="#cf0354"></path><path d="m205.65625 277.257812h100.675781v65.796876h-100.675781zm0 0" fill="#ffc473"></path><path d="m256 277.257812h50.324219v65.796876h-50.324219zm0 0" fill="#ffb74f"></path><path d="m357.667969 154.453125c-4.246094-62.488281-57.539063-97.957031-101.675781-97.957031-44.132813 0-97.425782 35.46875-101.671876 97.957031-11.421874 2.140625-19.523437 12.816406-18.253906 24.550781l1.964844 18.15625c1.335938 12.320313 12.503906 21.308594 24.824219 19.972656l2.121093-.230468c25.214844 65.640625 65.910157 82.542968 91.015626 86.382812 25.105468-3.839844 65.800781-20.742187 91.019531-86.382812l2.121093.230468c12.316407 1.335938 23.488282-7.652343 24.820313-19.972656l1.96875-18.15625c1.269531-11.734375-6.832031-22.410156-18.253906-24.550781zm0 0" fill="#ffdba9"></path><path d="m375.921875 179-1.960937 18.164062c-1.339844 12.316407-12.511719 21.300782-24.828126 19.972657l-2.125-.230469c-25.210937 65.636719-65.90625 82.535156-91.007812 86.378906v-246.785156c44.125 0 97.421875 35.46875 101.667969 97.953125 11.425781 2.136719 19.527343 12.820313 18.253906 24.546875zm0 0" fill="#ffc473"></path><path d="m256 164.640625v70.382813h20.546875v-49.835938h44.761719v-20.546875zm0 0" fill="#ffaa20"></path><path d="m189.15625 164.640625h52.402344v20.546875h-52.402344zm0 0" fill="#ffc473"></path><path d="m429.769531 389.300781v54.6875c-45.648437 42.210938-106.699219 68.011719-173.769531 68.011719s-128.121094-25.800781-173.769531-68.011719v-54.6875c0-31.0625 25.167969-56.230469 56.21875-56.230469h235.101562c31.050781 0 56.21875 25.167969 56.21875 56.230469zm0 0" fill="#ffdba9"></path><path d="m429.769531 389.289062v54.699219c-45.648437 42.210938-106.699219 68.011719-173.769531 68.011719v-178.929688h117.550781c31.050781 0 56.21875 25.167969 56.21875 56.21875zm0 0" fill="#ffc473"></path><path d="m338.816406 354.113281h-13.683594c-15.457031 0-28.105468 12.644531-28.105468 28.101563v29.890625h13.917968v16.832031h8.199219v-11.933594h7.726563v11.933594h10.207031v-11.933594h7.726563v11.933594h8.199218v-16.832031h13.917969v-29.890625c0-15.457032-12.648437-28.101563-28.105469-28.101563zm-21.847656 38.382813h-.035156c-4.953125 0-9.003906-4.050782-9.003906-9.003906 0-4.953126 4.050781-9.003907 9.003906-9.003907h.035156c4.953125 0 9.003906 4.050781 9.003906 9.003907 0 4.949218-4.050781 9.003906-9.003906 9.003906zm19.984375 15.789062h-9.960937c-2.089844 0-3.363282-2.292968-2.261719-4.070312l4.980469-8.023438c1.042968-1.679687 3.484374-1.679687 4.527343 0l4.980469 8.023438c1.101562 1.777344-.171875 4.070312-2.265625 4.070312zm19.066406-24.792968c0 4.949218-4.050781 9-9.003906 9h-.035156c-4.949219 0-9-4.050782-9-9 0-4.953126 4.050781-9.003907 9-9.003907h.035156c4.953125 0 9.003906 4.050781 9.003906 9.003907zm0 0" fill="#0051bd" style="fill: rgb(15, 15, 15);"></path><path d="m122.339844 419.546875v54.808594c9.597656 5.890625 19.617187 11.164062 30 15.765625v-70.570313zm0 0" fill="#ffc473"></path><path d="m359.671875 419.546875v70.570313c10.382813-4.605469 20.398437-9.878907 30-15.765626v-54.804687zm0 0" fill="#ffb74f"></path><g fill="#0051bd"><path d="m164.53125 200.609375c0 5.132813-4.160156 9.292969-9.292969 9.292969-5.128906 0-9.289062-4.160156-9.289062-9.292969 0-5.128906 4.160156-9.289063 9.289062-9.289063 5.132813 0 9.292969 4.160157 9.292969 9.289063zm0 0" fill="#0051bd" style="fill: rgb(15, 15, 15);"></path><path d="m188.785156 157.210938c-14.125-15.007813-2.917968-34.9375 13.425782-34.332032 16.339843.605469 21.449218 16.191406 21.449218 16.191406 6.308594-30.359374-27.601562-39.269531-27.601562-39.269531 22.996094 1.65625 41.585937-16.476562 41.585937-16.476562-25.65625 3.042969-26.871093-8.910157-25.503906-15.914063-24.929687 12.546875-46.734375 35.625-54.785156 67.691406 6.851562 15.660157 31.429687 22.109376 31.429687 22.109376zm0 0" fill="#0051bd" style="fill: rgb(15, 15, 15);"></path><path d="m199.46875 132.578125c-4.097656-.300781-7.664062 2.78125-7.960938 6.878906-.300781 4.101563 2.78125 7.664063 6.878907 7.964844 4.101562.296875 7.667969-2.78125 7.964843-6.882813.300782-4.097656-2.78125-7.664062-6.882812-7.960937zm0 0" fill="#0051bd" style="fill: rgb(15, 15, 15);"></path><path d="m222.878906 68.277344c-2.699218-.195313-5.046875 1.832031-5.242187 4.53125-.195313 2.699218 1.832031 5.046875 4.53125 5.242187 2.699219.195313 5.042969-1.832031 5.242187-4.53125.195313-2.699219-1.832031-5.046875-4.53125-5.242187zm0 0" fill="#0051bd" style="fill: rgb(15, 15, 15);"></path><path d="m216.070312 99.863281c-1.78125-.128906-3.332031 1.210938-3.460937 2.992188s1.207031 3.328125 2.988281 3.460937c1.78125.128906 3.332032-1.210937 3.460938-2.992187.132812-1.78125-1.207032-3.332031-2.988282-3.460938zm0 0" fill="#0051bd" style="fill: rgb(15, 15, 15);"></path><path d="m226.914062 95.453125c-2.242187-.164063-4.195312 1.523437-4.359374 3.765625-.164063 2.242188 1.523437 4.195312 3.769531 4.359375 2.242187.164063 4.191406-1.523437 4.355469-3.765625.164062-2.246094-1.523438-4.195312-3.765626-4.359375zm0 0" fill="#0051bd" style="fill: rgb(15, 15, 15);"></path><path d="m238.765625 87.566406c-3.007813-.21875-5.621094 2.042969-5.839844 5.050782-.21875 3.007812 2.039063 5.621093 5.046875 5.839843 3.007813.21875 5.621094-2.039062 5.839844-5.046875.21875-3.007812-2.039062-5.625-5.046875-5.84375zm0 0" fill="#0051bd" style="fill: rgb(15, 15, 15);"></path></g></svg>